<?xml version="1.0" encoding="UTF-8" standalone="no"?>
<!DOCTYPE svg PUBLIC "-//W3C//DTD SVG 1.1//EN" "http://www.w3.org/Graphics/SVG/1.1/DTD/svg11.dtd">
<svg width="100%" height="100%" viewBox="0 0 1134 668" version="1.1" xmlns="http://www.w3.org/2000/svg" xmlns:xlink="http://www.w3.org/1999/xlink" xml:space="preserve" xmlns:serif="http://www.serif.com/" style="fill-rule:evenodd;clip-rule:evenodd;stroke-linecap:round;stroke-linejoin:round;stroke-miterlimit:1.5;">
    <g transform="matrix(1,0,0,1,-38.4279,-1390.02)">
        <g>
            <g transform="matrix(1.08654,0,0,1.08654,3.86734,486.594)">
                <g>
                    <g transform="matrix(1.02167,0,0,1.05624,-155.701,-15.8748)">
                        <ellipse cx="685.801" cy="1044.57" rx="231.21" ry="223.643" style="fill:none;stroke:black;stroke-width:36.9px;"/>
                    </g>
                    <g transform="matrix(0.920349,0,0,0.920349,-3.55931,-447.836)">
                        <path d="M737.824,1537.64C769.794,1572.02 789.354,1618.08 789.354,1668.67C789.354,1774.91 703.099,1861.17 596.856,1861.17C490.614,1861.17 404.358,1774.91 404.358,1668.67C404.358,1562.43 490.614,1476.17 596.856,1476.17C642.456,1476.17 684.373,1492.06 717.366,1518.6C707.848,1513.01 696.766,1509.8 684.941,1509.8C649.527,1509.8 620.775,1538.55 620.775,1573.97C620.775,1609.38 649.527,1638.13 684.941,1638.13C720.355,1638.13 749.107,1609.38 749.107,1573.97C749.107,1560.49 744.94,1547.97 737.824,1537.64Z"/>
                    </g>
                </g>
                <g transform="matrix(6.12323e-17,-1,1,6.12323e-17,-538.963,1632.87)">
                    <g transform="matrix(0.255417,0,0,0.264059,382.382,1267.28)">
                        <ellipse cx="685.801" cy="1044.57" rx="231.21" ry="223.643" style="fill:none;stroke:black;stroke-width:73.81px;"/>
                    </g>
                    <g transform="matrix(0.362175,0,0,0.356895,149.24,1108.48)">
                        <ellipse cx="1126.43" cy="1219.5" rx="81.528" ry="82.735"/>
                    </g>
                    <g transform="matrix(1.18059,0,0,1.09365,-68.6922,-113.904)">
                        <path d="M310.983,1104.87C311.967,1295.19 418.061,1521.76 508.056,1563.57" style="fill:none;stroke:black;stroke-width:16.85px;"/>
                    </g>
                </g>
                <g transform="matrix(-1.72255e-16,1,-1,-1.72255e-16,1643.56,542.605)">
                    <g transform="matrix(0.255417,0,0,0.264059,382.382,1267.28)">
                        <ellipse cx="685.801" cy="1044.57" rx="231.21" ry="223.643" style="fill:none;stroke:black;stroke-width:73.81px;"/>
                    </g>
                    <g transform="matrix(0.362175,8.92831e-33,-8.79814e-33,0.356895,149.24,1108.48)">
                        <ellipse cx="1126.43" cy="1219.5" rx="81.528" ry="82.735"/>
                    </g>
                    <g transform="matrix(1.18059,0,0,1.09365,-68.6922,-113.904)">
                        <path d="M310.983,1104.87C311.967,1295.19 418.061,1521.76 508.056,1563.57" style="fill:none;stroke:black;stroke-width:16.85px;"/>
                    </g>
                </g>
            </g>
            <g transform="matrix(1,0,0,1,-1120.33,680.284)">
                <text x="1154.78px" y="1374.94px" style="font-family:'HelveticaNeue-UltraLight', 'Helvetica Neue';font-weight:100;font-size:125px;">PHASIL FRAMEWORK</text>
            </g>
        </g>
    </g>
</svg>
