<?xml version="1.0" encoding="UTF-8" standalone="no"?>
<!DOCTYPE svg PUBLIC "-//W3C//DTD SVG 1.1//EN" "http://www.w3.org/Graphics/SVG/1.1/DTD/svg11.dtd">
<svg width="100%" height="100%" viewBox="0 0 555 555" version="1.1" xmlns="http://www.w3.org/2000/svg" xmlns:xlink="http://www.w3.org/1999/xlink" xml:space="preserve" xmlns:serif="http://www.serif.com/" style="fill-rule:evenodd;clip-rule:evenodd;stroke-linecap:round;stroke-linejoin:round;stroke-miterlimit:1.5;">
    <g transform="matrix(1,0,0,1,-343.855,-48.4215)">
        <g transform="matrix(1.08654,0,0,1.08654,29.2296,-855.635)">
            <g>
                <g transform="matrix(1.02167,0,0,1.05624,-155.701,-15.8748)">
                    <ellipse cx="685.801" cy="1044.57" rx="231.21" ry="223.643" style="fill:none;stroke:black;stroke-width:36.9px;"/>
                </g>
                <g transform="matrix(0.920349,0,0,0.920349,-26.9014,787.482)">
                    <path d="M763.187,195.408C795.157,229.787 814.717,275.847 814.717,326.44C814.717,432.683 728.461,518.938 622.218,518.938C515.976,518.938 429.72,432.683 429.72,326.44C429.72,220.197 515.976,133.942 622.218,133.942C667.818,133.942 709.735,149.831 742.729,176.369C733.21,170.778 722.128,167.573 710.303,167.573C674.889,167.573 646.137,196.325 646.137,231.739C646.137,267.153 674.889,295.905 710.303,295.905C745.717,295.905 774.469,267.153 774.469,231.739C774.469,218.257 770.302,205.74 763.187,195.408Z"/>
                </g>
            </g>
        </g>
    </g>
</svg>
